<?xml version="1.0" encoding="utf-8"?>
<!-- Generator: Adobe Illustrator 19.0.0, SVG Export Plug-In . SVG Version: 6.00 Build 0)  -->
<svg version="1.1" id="图层_1" xmlns="http://www.w3.org/2000/svg" xmlns:xlink="http://www.w3.org/1999/xlink" x="0px" y="0px"
	 viewBox="-197 294 64 64" style="enable-background:new -197 294 64 64;" xml:space="preserve">
<style type="text/css">
	.st0{fill:#585858;}
</style>
<g>
	<path class="st0" d="M-165,296c-16.6,0-30,13.4-30,30s13.4,30,30,30s30-13.4,30-30S-148.4,296-165,296z M-165,352.2
		c-14.4,0-26.2-11.7-26.2-26.2s11.7-26.3,26.2-26.3s26.2,11.8,26.2,26.3C-138.8,340.4-150.5,352.2-165,352.2z"/>
	<path class="st0" d="M-155.4,331.1l-7.7,7.7V309c0-1.1-0.8-1.9-1.9-1.9s-1.9,0.9-1.9,1.9v29.7l-7.7-7.7c-0.8-0.7-2-0.7-2.7,0
		c-0.7,0.8-0.7,2,0,2.7l10.7,10.6c0.4,0.5,1,0.6,1.6,0.5c0.5,0.1,1.2-0.1,1.6-0.5l10.7-10.5c0.7-0.8,0.7-2,0-2.7
		C-153.5,330.4-154.7,330.4-155.4,331.1z"/>
</g>
</svg>
