<?xml version="1.0" standalone="no"?><!DOCTYPE svg PUBLIC "-//W3C//DTD SVG 1.1//EN" "http://www.w3.org/Graphics/SVG/1.1/DTD/svg11.dtd"><svg t="1498473575906" class="icon" style="" viewBox="0 0 1024 1024" version="1.1" xmlns="http://www.w3.org/2000/svg" p-id="2376" xmlns:xlink="http://www.w3.org/1999/xlink" width="200" height="200"><defs><style type="text/css"></style></defs><path d="M38.4 281.6H192l128 172.8 44.8-57.6S230.4 224 224 211.2h-192c-12.8 0-32 19.2-32 38.4s19.2 32 38.4 32z m755.2 0v96c12.8 12.8 44.8 12.8 57.6 6.4l160-115.2c12.8-12.8 12.8-25.6 6.4-38.4l-160-115.2c-12.8-12.8-44.8-19.2-57.6-6.4v102.4h-192L192 742.4H38.4c-19.2 0-38.4 12.8-38.4 32s19.2 38.4 38.4 38.4h192l416-531.2h147.2z m64 358.4c-12.8-12.8-44.8-6.4-57.6 0v96h-153.6L512 569.6l-51.2 57.6 140.8 179.2h192v102.4c12.8 12.8 44.8 6.4 57.6-6.4l160-115.2c12.8-12.8 12.8-25.6 0-38.4L857.6 640z" p-id="2377" fill="#ffffff"></path></svg>