<?xml version="1.0" encoding="utf-8"?>
<!-- Generator: Adobe Illustrator 19.0.0, SVG Export Plug-In . SVG Version: 6.00 Build 0)  -->
<svg version="1.1" id="图层_1" xmlns="http://www.w3.org/2000/svg" xmlns:xlink="http://www.w3.org/1999/xlink" x="0px" y="0px"
	 viewBox="0 0 500 60" style="enable-background:new 0 0 500 60;" xml:space="preserve">
<style type="text/css">
	.st0{fill:#A1CF82;}
	.st1{fill:#0050A2;}
</style>
<g id="XMLID_2_">
	<g id="XMLID_9_">
		<path id="XMLID_23_" class="st0" d="M166.2,19.4c-3.6-2.4-7.9-3.7-12.4-3.7c-12,0-21.8,9.5-21.8,21.2c0,11.7,9.8,21.2,21.8,21.2
			c5.8,0,11.3-2.2,15.4-6.2l-2.5-2.5c-3.4,3.3-8,5.2-12.9,5.2c-10,0-18.2-7.9-18.2-17.7c0-9.7,8.2-17.7,18.2-17.7
			c4.9,0,9.4,1.8,12.9,5.2l3.1,3V15.6h-3.6V19.4z"/>
		<g id="XMLID_20_">
			<rect id="XMLID_22_" x="267.1" y="16.6" class="st0" width="28.4" height="3.5"/>
			<polygon id="XMLID_21_" class="st0" points="295.5,53.6 283.1,53.6 283.1,23.6 279.5,23.6 279.5,53.6 267.1,53.6 267.1,57.1 
				295.5,57.1 			"/>
		</g>
		<g id="XMLID_12_">
			<g id="XMLID_17_">
				<rect id="XMLID_19_" x="457.6" y="16.6" class="st0" width="28.4" height="3.5"/>
				<polygon id="XMLID_18_" class="st0" points="485.9,53.6 473.6,53.6 473.6,23.6 470,23.6 470,53.6 457.6,53.6 457.6,57.1 
					485.9,57.1 				"/>
			</g>
			<path id="XMLID_16_" class="st0" d="M356.6,19.4c-3.6-2.4-7.9-3.7-12.4-3.7c-12,0-21.8,9.5-21.8,21.2c0,11.7,9.8,21.2,21.8,21.2
				c5.8,0,11.3-2.2,15.4-6.2l-2.5-2.5c-3.4,3.3-8,5.2-12.9,5.2c-10,0-18.2-7.9-18.2-17.7c0-9.7,8.2-17.7,18.2-17.7
				c4.9,0,9.4,1.8,12.9,5.2l3.1,3V15.6h-3.6V19.4z"/>
			<g id="XMLID_13_">
				<rect id="XMLID_15_" x="388.6" y="16.6" class="st0" width="14.6" height="3.5"/>
				<path id="XMLID_14_" class="st0" d="M413.3,20.1h6.8v22.9c0,6.3-5.3,11.5-11.8,11.5c-6.5,0-11.8-5.1-11.8-11.5V23.6h-3.6v19.4
					c0,8.2,6.9,14.9,15.4,14.9c8.5,0,15.4-6.7,15.4-14.9V20.1h4.3v-3.5h-14.6V20.1z"/>
			</g>
		</g>
		<g id="XMLID_10_">
			<polygon id="XMLID_11_" class="st0" points="221.6,16.6 205.4,16.6 205.4,20.1 219,20.1 225.6,39.3 210.1,39.3 215.5,23.6 
				211.7,23.6 201.3,53.6 195.6,53.6 195.6,57.1 209.7,57.1 209.7,53.6 205.1,53.6 208.9,42.8 226.8,42.8 230.5,53.6 225.9,53.6 
				225.9,57.1 240.1,57.1 240.1,53.6 234.3,53.6 			"/>
		</g>
	</g>
	<g id="XMLID_3_">
		<path id="XMLID_4_" class="st0" d="M495.3,2c0.8,0,1.6,0.2,2.3,0.6c0.7,0.4,1.3,1,1.8,1.7c0.4,0.7,0.6,1.5,0.6,2.3
			c0,0.8-0.2,1.5-0.6,2.3c-0.4,0.7-1,1.3-1.7,1.7c-0.7,0.4-1.5,0.6-2.3,0.6c-0.8,0-1.6-0.2-2.3-0.6c-0.7-0.4-1.3-1-1.7-1.7
			c-0.4-0.7-0.6-1.5-0.6-2.3c0-0.8,0.2-1.6,0.6-2.3c0.4-0.7,1-1.3,1.8-1.7C493.8,2.2,494.5,2,495.3,2z M495.3,2.8
			c-0.7,0-1.3,0.2-1.9,0.5c-0.6,0.3-1.1,0.8-1.5,1.4c-0.4,0.6-0.5,1.2-0.5,1.9c0,0.7,0.2,1.3,0.5,1.9c0.3,0.6,0.8,1.1,1.5,1.4
			c0.6,0.3,1.3,0.5,1.9,0.5c0.7,0,1.3-0.2,1.9-0.5c0.6-0.3,1.1-0.8,1.4-1.4c0.3-0.6,0.5-1.2,0.5-1.9c0-0.7-0.2-1.3-0.5-1.9
			c-0.4-0.6-0.8-1.1-1.5-1.4C496.6,2.9,496,2.8,495.3,2.8z M493.3,9.1V4.2h1.7c0.6,0,1,0,1.3,0.1c0.3,0.1,0.5,0.3,0.6,0.5
			c0.2,0.2,0.2,0.5,0.2,0.7c0,0.4-0.1,0.7-0.4,0.9c-0.3,0.3-0.6,0.4-1,0.4c0.2,0.1,0.3,0.2,0.4,0.3c0.2,0.2,0.5,0.5,0.7,1l0.6,1h-1
			l-0.4-0.8c-0.4-0.6-0.6-1-0.8-1.1C495.1,7,494.8,7,494.6,7h-0.5v2.1H493.3z M494.1,6.3h1c0.5,0,0.8-0.1,1-0.2
			c0.2-0.1,0.3-0.3,0.3-0.5c0-0.1,0-0.3-0.1-0.4c-0.1-0.1-0.2-0.2-0.3-0.3c-0.1-0.1-0.4-0.1-0.8-0.1h-0.9V6.3z"/>
	</g>
</g>
<g id="XMLID_24_">
	<g id="XMLID_31_">
		<g id="XMLID_38_">
			<rect id="XMLID_45_" x="59.5" y="12" class="st1" width="8.7" height="2.6"/>
			<polygon id="XMLID_44_" class="st1" points="73.5,14.6 92,14.6 92,12 73.5,12 73.5,6.8 70.9,6.8 70.9,21.7 73.5,21.7 			"/>
			<polygon id="XMLID_43_" class="st1" points="97.2,14.6 108.5,14.6 108.5,12 97.2,12 97.2,6.8 94.6,6.8 94.6,21.7 97.2,21.7 			
				"/>
			<polygon id="XMLID_42_" class="st1" points="107.2,24.4 85.3,24.4 85.3,17.6 82.7,17.6 82.7,24.4 60.8,24.4 60.8,27 107.2,27 			
				"/>
			<polygon id="XMLID_41_" class="st1" points="64.9,41.4 72.2,34.1 79.4,41.4 83.1,41.4 72.2,30.4 61.2,41.4 			"/>
			<polygon id="XMLID_40_" class="st1" points="88.7,41.4 95.9,34.1 103.1,41.4 106.8,41.4 95.9,30.4 85,41.4 			"/>
			<polygon id="XMLID_39_" class="st1" points="58.9,45.9 58.9,48.5 82.7,48.5 82.7,60 85.3,60 85.3,48.5 109.2,48.5 109.2,45.9 			
				"/>
		</g>
		<g id="XMLID_32_">
			<polygon id="XMLID_37_" class="st1" points="5.9,11.1 20.7,11.1 20.7,46.2 23.3,46.2 23.3,8.5 3.3,8.5 3.3,46.2 5.9,46.2 			"/>
			<polygon id="XMLID_36_" class="st1" points="14.6,25.1 12,25.1 12,46.3 0,58.4 3.7,58.4 13.3,48.7 22.9,58.4 26.6,58.4 
				14.6,46.3 			"/>
			<rect id="XMLID_35_" x="26.8" y="14.3" class="st1" width="15.7" height="2.6"/>
			<polygon id="XMLID_34_" class="st1" points="44.9,6.8 44.9,55.7 37.5,55.7 37.5,58.4 47.5,58.4 47.5,6.8 			"/>
			<polygon id="XMLID_33_" class="st1" points="42.5,27 26.8,42.8 26.8,46.5 42.5,30.7 			"/>
		</g>
	</g>
	<g id="XMLID_25_">
		<path id="XMLID_26_" class="st1" d="M112.6,0c0.6,0,1.1,0.1,1.7,0.4c0.5,0.3,1,0.7,1.3,1.3c0.3,0.5,0.5,1.1,0.5,1.7
			c0,0.6-0.1,1.2-0.4,1.7c-0.3,0.5-0.7,1-1.3,1.3c-0.5,0.3-1.1,0.5-1.7,0.5c-0.6,0-1.2-0.1-1.7-0.5c-0.5-0.3-1-0.7-1.3-1.3
			c-0.3-0.5-0.5-1.1-0.5-1.7c0-0.6,0.2-1.2,0.5-1.7c0.3-0.5,0.7-1,1.3-1.3C111.5,0.1,112,0,112.6,0z M112.6,0.6
			c-0.5,0-0.9,0.1-1.4,0.4c-0.5,0.2-0.8,0.6-1.1,1.1c-0.3,0.5-0.4,0.9-0.4,1.4c0,0.5,0.1,1,0.4,1.4c0.3,0.5,0.6,0.8,1.1,1.1
			c0.5,0.3,0.9,0.4,1.4,0.4c0.5,0,1-0.1,1.4-0.4c0.5-0.3,0.8-0.6,1.1-1.1c0.2-0.5,0.4-0.9,0.4-1.4c0-0.5-0.1-1-0.4-1.4
			c-0.3-0.5-0.6-0.8-1.1-1.1C113.5,0.7,113.1,0.6,112.6,0.6z M111.1,5.3V1.6h1.3c0.4,0,0.7,0,0.9,0.1c0.2,0.1,0.3,0.2,0.5,0.4
			c0.1,0.2,0.2,0.3,0.2,0.5c0,0.3-0.1,0.5-0.3,0.7c-0.2,0.2-0.4,0.3-0.8,0.3c0.1,0.1,0.2,0.1,0.3,0.2c0.1,0.1,0.3,0.4,0.5,0.7
			l0.4,0.7h-0.7l-0.3-0.6c-0.3-0.5-0.5-0.7-0.6-0.9c-0.1-0.1-0.3-0.1-0.5-0.1h-0.3v1.6H111.1z M111.7,3.2h0.7c0.3,0,0.6-0.1,0.7-0.2
			c0.1-0.1,0.2-0.2,0.2-0.4c0-0.1,0-0.2-0.1-0.3c-0.1-0.1-0.1-0.2-0.3-0.2c-0.1,0-0.3-0.1-0.6-0.1h-0.7V3.2z"/>
	</g>
</g>
</svg>
