<?xml version="1.0" encoding="utf-8"?>
<!-- Generator: Adobe Illustrator 19.0.0, SVG Export Plug-In . SVG Version: 6.00 Build 0)  -->
<svg version="1.1" id="图层_1" xmlns="http://www.w3.org/2000/svg" xmlns:xlink="http://www.w3.org/1999/xlink" x="0px" y="0px"
	 viewBox="0 0 460 220" style="enable-background:new 0 0 460 220;" xml:space="preserve">
<style type="text/css">
	.st0{fill:#959596;}
	.st1{fill:#0050A2;}
	.st2{fill:#A1CF82;}
	.st3{fill:#D8D8D8;}
</style>
<g id="XMLID_45_">
	<g id="XMLID_46_">
		<path id="XMLID_47_" class="st0" d="M11.8,196.2c-0.1,0.9-0.1,2.1-0.1,3.7v4.8c0,6.9-1.1,9.4-5.6,12.8c-0.5-0.6-0.6-0.7-1.5-1.3
			c2.2-1.4,3.3-2.5,4.2-4c0.9-1.6,1.3-3.8,1.3-7.5v-4.8c0-2.1,0-2.7-0.2-3.7H11.8z M5.9,210.4c0.1-0.7,0.1-1.5,0.1-2.6v-12.7
			c0-1.1,0-1.9-0.1-2.7c0.8,0.1,1.3,0.1,2.5,0.1h4.4c1.3,0,2,0,2.6-0.1c-0.1,0.7-0.1,1.6-0.1,2.7v12.6c0,1,0,1.9,0.1,2.7h-1.9
			c0.1-0.5,0.1-1.8,0.1-2.7v-13.6H7.8v13.7c0,0.8,0,2.2,0.1,2.6H5.9z M14.5,216.9c-0.9-1.9-1.7-3.3-3.1-5.2l1.4-0.9
			c1.4,1.8,2.2,3,3.3,5L14.5,216.9z M19.3,199.3c-1,0-2,0.1-2.8,0.1v-1.9c0.9,0.1,1.8,0.1,2.8,0.1h5.5v-3.2c0-1.3-0.1-2-0.2-2.7h2.2
			c-0.1,0.8-0.2,1.6-0.2,2.7v3.2h1.2c1.1,0,1.9-0.1,2.7-0.2v2c-0.8-0.1-1.6-0.2-2.6-0.2h-1.3v15.5c0,1.5-0.7,2-2.7,2
			c-1,0-2-0.1-3.1-0.2c-0.1-0.8-0.2-1.2-0.5-2c1.3,0.2,2.5,0.4,3.4,0.4c1,0,1.2-0.1,1.2-1v-10.6c0-0.2,0.1-1.1,0.2-2.7
			c-1.9,4.6-4.6,8.3-8.2,11.2c-0.4-0.6-0.7-1-1.3-1.4c2.1-1.5,3.9-3.3,5.7-6c1.2-1.8,1.4-2.2,2.8-5.3H19.3z"/>
		<path id="XMLID_52_" class="st0" d="M78.7,195.1c-0.5,0.8-1,1.3-2,2.2c-0.5-0.5-0.6-0.7-1.3-1.1c1.9-1.6,3.1-3.2,3.6-5.4l1.7,0.5
			c-0.1,0.2-0.1,0.2-0.2,0.5c-0.3,0.5-0.5,1-0.9,1.7h5.5c1.2,0,2-0.1,2.7-0.2v1.8c-0.8-0.1-1.6-0.1-2.6-0.1h-1.9
			c-0.1,1.8-0.1,1.8-0.3,2.9H86c1.1,0,1.9-0.1,2.6-0.2v1.8c-0.7-0.1-1.5-0.2-2.6-0.2h-3.4c-0.1,0.2-0.1,0.2-0.1,0.4
			c1.5,0.7,3.7,2,5.5,3.1l-1,1.5c-1.7-1.4-2.7-2.1-5-3.4c-1.2,2.2-3,3.9-5.9,5.3c-0.3-0.5-0.6-0.9-1.2-1.4c3.1-1.3,5-3,6.1-5.6h-3.2
			c-1.1,0-2,0.1-2.7,0.2v-1.8c0.6,0.1,1.5,0.2,2.7,0.2h3.7c0.2-1,0.2-1.3,0.3-2.9H78.7z M79.2,217.3c0.1-0.7,0.2-1.6,0.2-2.9v-6
			c0-1.6,0-2.3-0.1-3.2c0.9,0.1,1.7,0.1,3.1,0.1h11c1.4,0,2.2,0,3.1-0.1c-0.1,0.9-0.1,1.5-0.1,3.2v6c0,1.4,0.1,2.2,0.2,2.9h-1.9
			v-1.4H81.1v1.4H79.2z M81.1,209.7h13.5v-2.9H81.1V209.7z M81.1,214.3h13.5v-3.1H81.1V214.3z M91.8,203.3c-1.1,0-1.6,0-2.4,0.1
			c0.1-0.8,0.1-1.2,0.1-2.1v-5.8c0-1,0-1.6-0.1-2.4c0.7,0.1,1.3,0.1,2.4,0.1h5.1c1.1,0,1.7,0,2.4-0.1c-0.1,0.7-0.1,1.4-0.1,2.3v5.7
			c0,1,0,1.6,0.1,2.2c-0.7-0.1-1.3-0.1-2.3-0.1H91.8z M91.2,201.7h6.1v-6.9h-6.1V201.7z"/>
		<path id="XMLID_59_" class="st0" d="M152.4,200.9c0.9,0,1.6,0,2-0.1v1.8c-0.6-0.1-1.2-0.1-2-0.1h-1.1v1.2c0.2,0.2,0.2,0.2,0.6,0.6
			c1.2,1.2,2.2,2.4,3.5,4.4l-1.2,1.2c-0.9-1.6-1.7-2.7-2.9-4.2v8.6c0,1.5,0,2.5,0.2,3.2h-2c0.1-0.8,0.2-1.7,0.2-3.2v-4.6
			c0-0.8,0.1-3.3,0.1-4.5c-0.9,3.5-1.9,5.8-3.6,8.2c-0.4-0.7-0.6-1.1-1.1-1.6c1.3-1.5,2.2-3.1,3.1-5.4c0.5-1.2,1-2.9,1.3-3.9h-1.6
			c-0.9,0-1.5,0-2.1,0.1v-1.8c0.5,0.1,1,0.1,2.1,0.1h1.8v-6.7c0-1.5-0.1-2.3-0.2-3.1h2c-0.1,0.7-0.1,1.6-0.1,3.1v6.7H152.4z
			 M146.8,193.3c0.7,1.7,1.2,3.4,1.7,5.7l-1.4,0.6c-0.5-2.5-1-4-1.7-5.7L146.8,193.3z M155,193.7c-0.5,2.8-0.8,3.8-1.5,5.8l-1.3-0.5
			c0.7-2,1.1-3.5,1.3-5.8L155,193.7z M161.7,193.5c0-1-0.1-1.5-0.2-2.3h2c-0.1,0.8-0.1,1.3-0.1,2.3v0.1h4.2c1.4,0,2,0,2.8-0.2v1.8
			c-0.8-0.1-1.5-0.1-2.7-0.1h-4.3v2h3.3c1.3,0,2,0,2.7-0.1v1.6c-0.9-0.1-1.5-0.1-2.7-0.1h-3.3v2.1h4.8c1.3,0,2.1-0.1,2.9-0.2v1.8
			c-0.8-0.1-1.6-0.2-2.9-0.2H158c-1.4,0-2.1,0-2.9,0.2v-1.8c0.7,0.1,1.5,0.2,2.9,0.2h3.7v-2.1H159c-1.1,0-1.8,0-2.6,0.1v-1.6
			c0.7,0.1,1.4,0.1,2.6,0.1h2.7v-2h-3.3c-1.2,0-1.9,0-2.7,0.1v-1.8c0.7,0.1,1.4,0.2,2.7,0.2L161.7,193.5L161.7,193.5z M158.2,214.3
			c0,1.5,0,2.4,0.1,3.1h-2c0.1-0.7,0.1-1.6,0.1-3.1v-8.2c0-1.3,0-1.8-0.1-2.5c0.7,0.1,1.6,0.1,2.7,0.1h7.3c1.3,0,2.1,0,2.7-0.1
			c-0.1,0.7-0.1,1.6-0.1,3.1v8.3c0,1.7-0.6,2.2-2.4,2.2c-0.9,0-1.8,0-3-0.1c-0.1-0.8-0.2-1.2-0.5-1.8c1.2,0.2,2.2,0.3,3.1,0.3
			c0.8,0,1-0.1,1-0.8v-2.3h-9V214.3z M167.2,207.3v-2.1h-9v2.1H167.2z M167.2,211v-2.2h-9v2.2H167.2z"/>
		<path id="XMLID_67_" class="st0" d="M218.6,208.2c-1.3,0-2.2,0.1-3.2,0.2v-2c0.8,0.1,1.6,0.2,3.1,0.2h0.7v-3.9c0-1.2,0-2-0.1-2.7
			c0.7,0.1,1.4,0.1,2.8,0.1h5.3c0-1.3,0-1.8-0.2-2.6h2.1c-0.1,0.7-0.2,1.4-0.2,2.2c0,0.2,0,0.3,0,0.4h5.9c1.4,0,2,0,2.8-0.1
			c-0.1,0.7-0.1,1.4-0.1,2.7v4h0.8c1.6,0,2.3,0,3.1-0.2v2c-1-0.1-1.9-0.2-3.3-0.2h-8.8c1.2,2,2.2,2.9,4,4.2c2.2,1.4,4.4,2.2,8,3.1
			c-0.5,0.7-0.8,1.1-1.1,1.9c-6.3-1.7-10.2-4.4-12.5-8.4c-1,2.4-2.3,4.2-4.4,5.6c-1.9,1.3-3.8,2.1-7,2.8c-0.3-0.8-0.6-1.4-1-1.9
			c3.3-0.5,5.5-1.3,7.4-2.7c1.6-1.2,2.6-2.5,3.4-4.5H218.6z M231.5,194.1v-0.6c0-0.7-0.1-1.3-0.1-2h2.1c-0.1,0.7-0.2,1.3-0.2,2v0.6
			h4.4c1.5,0,2.4-0.1,3.3-0.2v2c-0.9-0.1-1.8-0.1-3.3-0.1h-4.4v0.9c0,0.8,0,1.2,0.1,1.9h-2c0.1-0.5,0.1-1.1,0.1-1.9v-0.9h-6.9v0.9
			c0,0.8,0,1.3,0.1,1.9h-2c0.1-0.6,0.1-1.2,0.1-1.9v-0.9h-4.1c-1.5,0-2.3,0-3.2,0.1v-2c0.8,0.1,1.8,0.2,3.2,0.2h4.1v-0.6
			c0-0.7-0.1-1.4-0.2-2h2.1c-0.1,0.6-0.2,1.3-0.2,2v0.6H231.5z M226.6,206.6c0.2-1.2,0.3-2.4,0.5-4.9H221v4.9H226.6z M235.6,206.6
			v-4.9h-6.7c-0.1,2-0.3,3.6-0.5,4.9H235.6z"/>
		<path id="XMLID_72_" class="st0" d="M290.2,195c-1,1.4-1.8,2.3-3.3,3.6c-0.4-0.5-0.8-1-1.3-1.3c2.3-1.7,3.8-3.7,4.8-6.4l1.8,0.6
			c-0.4,0.7-0.4,0.7-1.1,1.9h4.4c1.4,0,2.2-0.1,2.9-0.2v1.8c-0.7-0.1-1.5-0.1-2.6-0.1h-2c0.7,1,1,1.6,1.5,2.6l-1.6,0.6
			c-0.6-1.4-1-2.3-1.6-3.2H290.2z M297.9,209.9c-1.1,1.2-2.9,2.7-4.4,3.7c-2.2,1.4-3.5,2-6.7,3.2c-0.3-0.7-0.6-1-1.1-1.6
			c3.1-0.9,4.7-1.6,6.9-2.9c1.6-1,3.1-2.1,4-3.1h-6.6c-1.2,0-1.2,0-2.5,0.1c0.4-0.8,0.4-0.9,1-2.8c0.3-0.9,0.3-1.1,0.7-3.4
			c0.7,0.1,1.1,0.1,2.7,0.1h6.1v-2.9h-7c-1.1,0-1.9,0-2.8,0.1v-1.8c0.6,0.1,1.4,0.1,2.8,0.1h15.4c1.4,0,2,0,2.7-0.1
			c-0.1,0.5-0.1,1-0.1,1.8v2.4c0,0.9,0,1.4,0.1,2c-0.8-0.1-1.5-0.1-2.7-0.1h-6.6v3h8.4c1.1,0,1.8,0,2.4-0.1
			c-0.1,0.4-0.1,0.5-0.1,1.2c-0.6,6.3-0.8,6.7-3.7,6.7c-1.1,0-1.9,0-3.2-0.1c-0.1-0.8-0.2-1.2-0.5-1.8c1.3,0.2,2.5,0.3,3.5,0.3
			c1,0,1.3-0.1,1.5-0.7c0.2-0.6,0.4-1.8,0.5-3.9h-8.8v5.1c0,1.3,0.1,2.3,0.2,3.2h-2.1c0.1-0.7,0.2-1.3,0.2-1.8v-1.3V209.9z
			 M297.9,204.7h-7.1c-0.4,1.4-0.5,1.8-0.9,3h8V204.7z M308.5,193.5c1.4,0,2.2-0.1,3.1-0.2v1.9c-0.9-0.1-1.8-0.1-3-0.1h-3.2
			c0.5,0.6,1.1,1.6,1.6,2.5l-1.6,0.7c-0.6-1.4-1-1.9-1.8-3.2h-2.5c-0.9,1.4-1.4,2-2.5,3.2c-0.5-0.5-0.8-0.7-1.4-1.1
			c2.1-1.9,3.1-3.5,4-6.2l1.8,0.5c-0.3,0.8-0.5,1-1,2H308.5z M299.6,203.2h7.4v-2.9h-7.4V203.2z"/>
		<path id="XMLID_78_" class="st0" d="M381.7,205.1c-1-0.1-2-0.2-3.8-0.2h-17.8c-1.6,0-2.9,0.1-3.8,0.2v-2.4
			c0.9,0.1,2.2,0.2,3.8,0.2h17.8c1.7,0,2.9-0.1,3.8-0.2V205.1z"/>
		<path id="XMLID_80_" class="st0" d="M430.4,201.9h-2.1c-1,0-1.4,0-2.1,0.1v-2c0.7,0.1,1.1,0.1,2.2,0.1h1.8c0.8,0,1.5-0.1,2.2-0.1
			c-0.1,0.9-0.1,1.6-0.1,3.1v9.6c0.8-0.4,1.2-0.7,3.3-2.2l0.1,2c-0.9,0.5-0.9,0.5-3,1.8c-1.2,0.7-1.3,0.8-2.5,1.6l-0.9-1.9
			c0.8-0.5,1-0.6,1-1.5V201.9z M430.1,191.4c2,1.4,3.4,2.7,4.3,3.9l-1.3,1.4c-1.4-1.6-2.6-2.8-4.4-4.2L430.1,191.4z M439.5,203.4
			c-1.3,0-2,0-2.7,0.1c0.1-0.7,0.1-1,0.1-2.7v-6c0-1.4,0-2-0.1-2.7c0.6,0.1,1.3,0.1,2.4,0.1h9.2c1.2,0,1.8,0,2.4-0.1
			c-0.1,0.7-0.1,1.2-0.1,2.7v5.8c0,1,0,2,0.1,2.8c-0.7-0.1-1.4-0.1-2.7-0.1h-3.7v2.6h5.2c1.1,0,1.9-0.1,2.6-0.2v1.9
			c-0.7-0.1-1.6-0.2-2.6-0.2h-4.2c1.1,1.7,1.7,2.4,2.7,3.4c1.2,1.3,2.7,2.4,4.5,3.3c-0.4,0.5-0.6,0.8-1,1.7
			c-1.7-1.1-2.9-2.1-4.4-3.6c-0.9-0.9-1.4-1.6-2.9-4.1c0.1,0.8,0.1,1.5,0.1,2.6v3.8c0,1.3,0,1.9,0.1,2.6h-1.9
			c0.1-0.7,0.1-1.5,0.1-2.6v-3.7c0-1.1,0-1.9,0.1-2.6c-1,1.8-1.8,2.9-3.3,4.4c-1.2,1.3-2.3,2.1-4,3.2c-0.3-0.7-0.6-1-1.3-1.5
			c3.3-1.7,5.7-3.9,7.5-6.8h-4.6c-1,0-1.8,0.1-2.5,0.2v-1.9c0.7,0.1,1.5,0.2,2.5,0.2h5.6v-2.6H439.5z M438.5,193.9v3.1h4.3v-3.1
			H438.5z M438.5,198.4v3.4h4.3v-3.4H438.5z M444.4,197h4.6v-3.1h-4.6V197z M444.4,201.9h4.6v-3.4h-4.6V201.9z"/>
	</g>
	<g id="XMLID_2_">
		<g id="XMLID_30_">
			<g id="XMLID_37_">
				<rect id="XMLID_44_" x="154.4" y="27.2" class="st1" width="22.2" height="6.7"/>
				<polygon id="XMLID_43_" class="st1" points="189.9,33.9 237.2,33.9 237.2,27.2 189.9,27.2 189.9,14.1 183.3,14.1 183.3,51.9 
					189.9,51.9 				"/>
				<polygon id="XMLID_42_" class="st1" points="250.5,33.9 279.4,33.9 279.4,27.2 250.5,27.2 250.5,14.1 243.8,14.1 243.8,51.9 
					250.5,51.9 				"/>
				<polygon id="XMLID_41_" class="st1" points="276.1,58.6 220.2,58.6 220.2,41.3 213.6,41.3 213.6,58.6 157.7,58.6 157.7,65.2 
					276.1,65.2 				"/>
				<polygon id="XMLID_40_" class="st1" points="168.1,101.7 186.6,83.3 205,101.7 214.5,101.7 186.6,73.8 158.7,101.7 				"/>
				<polygon id="XMLID_39_" class="st1" points="228.7,101.7 247.2,83.3 265.6,101.7 275.1,101.7 247.2,73.8 219.3,101.7 				"/>
				<polygon id="XMLID_38_" class="st1" points="152.7,113 152.7,119.7 213.6,119.7 213.6,148.9 220.2,148.9 220.2,119.7 
					281.1,119.7 281.1,113 				"/>
			</g>
			<g id="XMLID_31_">
				<polygon id="XMLID_36_" class="st1" points="17.5,24.9 55.3,24.9 55.3,113.9 62,113.9 62,18.3 10.8,18.3 10.8,113.9 17.5,113.9 
									"/>
				<polygon id="XMLID_35_" class="st1" points="39.7,60.4 33.1,60.4 33.1,114.2 2.5,144.7 11.9,144.7 36.4,120.3 60.9,144.7 
					70.3,144.7 39.7,114.2 				"/>
				<rect id="XMLID_34_" x="70.9" y="33" class="st1" width="40" height="6.7"/>
				<polygon id="XMLID_33_" class="st1" points="117,14.1 117,138.1 98.1,138.1 98.1,144.7 123.7,144.7 123.7,14.1 				"/>
				<polygon id="XMLID_32_" class="st1" points="110.9,65.3 70.9,105.3 70.9,114.7 110.9,74.7 				"/>
			</g>
		</g>
		<g id="XMLID_24_">
			<path id="XMLID_25_" class="st2" d="M450.2,0c1.3,0,2.5,0.3,3.7,1c1.2,0.6,2.1,1.6,2.8,2.8c0.7,1.2,1,2.5,1,3.8
				c0,1.3-0.3,2.5-1,3.7c-0.7,1.2-1.6,2.1-2.8,2.8c-1.2,0.7-2.4,1-3.7,1c-1.3,0-2.5-0.3-3.7-1c-1.2-0.7-2.1-1.6-2.8-2.8
				c-0.7-1.2-1-2.4-1-3.7c0-1.3,0.3-2.6,1-3.8c0.7-1.2,1.6-2.1,2.8-2.8C447.8,0.3,449,0,450.2,0z M450.2,1.2c-1.1,0-2.1,0.3-3.1,0.8
				c-1,0.5-1.8,1.3-2.3,2.3c-0.6,1-0.8,2.1-0.8,3.1c0,1.1,0.3,2.1,0.8,3.1c0.6,1,1.3,1.8,2.3,2.3c1,0.6,2,0.8,3.1,0.8
				c1.1,0,2.1-0.3,3.1-0.8c1-0.6,1.8-1.3,2.3-2.3c0.6-1,0.8-2,0.8-3.1c0-1.1-0.3-2.1-0.8-3.1c-0.6-1-1.3-1.8-2.3-2.3
				C452.3,1.5,451.3,1.2,450.2,1.2z M446.9,11.7V3.6h2.8c0.9,0,1.6,0.1,2.1,0.2c0.4,0.2,0.8,0.4,1,0.8c0.3,0.4,0.4,0.8,0.4,1.2
				c0,0.6-0.2,1.1-0.6,1.5c-0.4,0.4-1,0.7-1.7,0.7c0.3,0.1,0.5,0.3,0.7,0.4c0.3,0.3,0.7,0.9,1.2,1.6l1,1.6h-1.6l-0.7-1.3
				c-0.6-1-1-1.6-1.4-1.9c-0.2-0.2-0.6-0.3-1-0.3h-0.8v3.4H446.9z M448.2,7.1h1.6c0.8,0,1.3-0.1,1.5-0.3c0.3-0.2,0.4-0.5,0.4-0.9
				c0-0.2-0.1-0.5-0.2-0.6c-0.1-0.2-0.3-0.3-0.6-0.4c-0.2-0.1-0.7-0.1-1.3-0.1h-1.5V7.1z"/>
		</g>
		<path id="XMLID_23_" class="st2" d="M347,25.7c-2.5-1.7-5.5-2.7-8.7-2.7c-8.5,0-15.4,6.9-15.4,15.4s6.9,15.4,15.4,15.4
			c4.1,0,8-1.6,10.9-4.5l-1.8-1.8c-2.4,2.4-5.6,3.8-9.1,3.8c-7.1,0-12.8-5.8-12.8-12.8c0-7.1,5.8-12.8,12.8-12.8
			c3.4,0,6.6,1.3,9.1,3.8l2.2,2.2V23H347V25.7z"/>
		<g id="XMLID_20_">
			<rect id="XMLID_22_" x="418" y="23.7" class="st2" width="20" height="2.5"/>
			<polygon id="XMLID_21_" class="st2" points="438,50.5 429.3,50.5 429.3,28.8 426.8,28.8 426.8,50.5 418,50.5 418,53.1 438,53.1 
							"/>
		</g>
		<g id="XMLID_17_">
			<rect id="XMLID_19_" x="418" y="67.2" class="st2" width="20" height="2.5"/>
			<polygon id="XMLID_18_" class="st2" points="438,94.1 429.3,94.1 429.3,72.3 426.8,72.3 426.8,94.1 418,94.1 418,96.6 438,96.6 
							"/>
		</g>
		<path id="XMLID_16_" class="st2" d="M347,69.2c-2.5-1.8-5.5-2.7-8.7-2.7c-8.5,0-15.4,6.9-15.4,15.4c0,8.5,6.9,15.4,15.4,15.4
			c4.1,0,8-1.6,10.9-4.5l-1.8-1.8c-2.4,2.4-5.6,3.8-9.1,3.8c-7.1,0-12.8-5.8-12.8-12.8c0-7.1,5.8-12.8,12.8-12.8
			c3.4,0,6.6,1.3,9.1,3.8l2.2,2.2v-8.5H347V69.2z"/>
		<path id="XMLID_15_" class="st2" d="M347,112.8c-2.5-1.7-5.5-2.7-8.7-2.7c-8.5,0-15.4,6.9-15.4,15.4c0,8.5,6.9,15.4,15.4,15.4
			c4.1,0,8-1.6,10.9-4.5l-1.8-1.8c-2.4,2.4-5.6,3.8-9.1,3.8c-7.1,0-12.8-5.8-12.8-12.8c0-7.1,5.8-12.8,12.8-12.8
			c3.4,0,6.6,1.3,9.1,3.8l2.2,2.2v-8.5H347V112.8z"/>
		<g id="XMLID_12_">
			<rect id="XMLID_14_" x="369.9" y="66.9" class="st2" width="10.3" height="2.5"/>
			<path id="XMLID_13_" class="st2" d="M387.3,69.4h4.8v16.6c0,4.6-3.7,8.3-8.3,8.3c-4.6,0-8.3-3.7-8.3-8.3V72h-2.5v14.1
				c0,6,4.9,10.8,10.8,10.8c6,0,10.8-4.9,10.8-10.8V69.4h3v-2.5h-10.3V69.4z"/>
		</g>
		<path id="XMLID_9_" class="st2" d="M383.8,110.1c-7.5,0-13.6,6.9-13.6,15.4c0,8.5,6.1,15.4,13.6,15.4c7.5,0,13.5-6.9,13.5-15.4
			C397.3,117,391.3,110.1,383.8,110.1z M383.8,138.2c-6.1,0-11-5.8-11-12.8c0-7.1,4.9-12.8,11-12.8c6.1,0,11,5.8,11,12.8
			C394.8,132.5,389.9,138.2,383.8,138.2z"/>
		<g id="XMLID_7_">
			<polygon id="XMLID_8_" class="st2" points="386.4,23.7 375,23.7 375,26.3 384.6,26.3 389.2,40.1 378.3,40.1 382.1,28.8 
				379.4,28.8 372.2,50.5 368.1,50.5 368.1,53.1 378.1,53.1 378.1,50.5 374.8,50.5 377.5,42.7 390.1,42.7 392.7,50.5 389.5,50.5 
				389.5,53.1 399.4,53.1 399.4,50.5 395.4,50.5 			"/>
		</g>
		<g id="XMLID_4_">
			<polygon id="XMLID_6_" class="st2" points="440,136.9 440,112.6 443.4,112.6 443.4,110.1 435.7,110.1 428,122.6 420.4,110.1 
				412.7,110.1 412.7,112.6 419,112.6 428,127.5 437.1,112.6 437.4,112.6 437.4,136.9 433,136.9 433,139.4 443.6,139.4 443.6,136.9 
							"/>
			<polygon id="XMLID_5_" class="st2" points="418.6,115.1 416.1,115.1 416.1,136.9 412.4,136.9 412.4,139.4 423,139.4 423,136.9 
				418.6,136.9 			"/>
		</g>
		<path id="XMLID_3_" class="st2" d="M453.5,81.9c0,1.8-1.5,3.3-3.3,3.3c-1.8,0-3.3-1.5-3.3-3.3c0-1.8,1.5-3.3,3.3-3.3
			C452.1,78.6,453.5,80.1,453.5,81.9z"/>
	</g>
	<rect id="XMLID_89_" x="2" y="170" class="st3" width="456" height="1"/>
</g>
</svg>
